<mxfile host="app.diagrams.net" agent="Mozilla/5.0 (Windows NT 10.0; Win64; x64) AppleWebKit/537.36 (KHTML, like Gecko) Chrome/127.0.0.0 Safari/537.36" version="24.7.6">
  <diagram name="Página-1" id="rp44qKdb7Xja_vT_BWVV">
    <mxGraphModel dx="1543" dy="998" grid="1" gridSize="10" guides="1" tooltips="1" connect="1" arrows="1" fold="1" page="0" pageScale="1" pageWidth="827" pageHeight="1169" math="0" shadow="0">
      <root>
        <mxCell id="0" />
        <mxCell id="1" parent="0" />
        <mxCell id="Li56kBEyfk9auPP5k_dc-7" value="" style="edgeStyle=orthogonalEdgeStyle;rounded=0;orthogonalLoop=1;jettySize=auto;html=1;" edge="1" parent="1" source="Li56kBEyfk9auPP5k_dc-3" target="Li56kBEyfk9auPP5k_dc-6">
          <mxGeometry relative="1" as="geometry" />
        </mxCell>
        <mxCell id="Li56kBEyfk9auPP5k_dc-3" value="Informar valor da primeira nota" style="rounded=0;whiteSpace=wrap;html=1;" vertex="1" parent="1">
          <mxGeometry x="-620" y="-230" width="120" height="60" as="geometry" />
        </mxCell>
        <mxCell id="Li56kBEyfk9auPP5k_dc-9" value="" style="edgeStyle=orthogonalEdgeStyle;rounded=0;orthogonalLoop=1;jettySize=auto;html=1;" edge="1" parent="1" source="Li56kBEyfk9auPP5k_dc-6" target="Li56kBEyfk9auPP5k_dc-8">
          <mxGeometry relative="1" as="geometry" />
        </mxCell>
        <mxCell id="Li56kBEyfk9auPP5k_dc-6" value="Informar valor da segunda nota&amp;nbsp;" style="whiteSpace=wrap;html=1;rounded=0;" vertex="1" parent="1">
          <mxGeometry x="-449" y="-230" width="120" height="60" as="geometry" />
        </mxCell>
        <mxCell id="Li56kBEyfk9auPP5k_dc-11" value="" style="edgeStyle=orthogonalEdgeStyle;rounded=0;orthogonalLoop=1;jettySize=auto;html=1;" edge="1" parent="1" source="Li56kBEyfk9auPP5k_dc-8" target="Li56kBEyfk9auPP5k_dc-10">
          <mxGeometry relative="1" as="geometry" />
        </mxCell>
        <mxCell id="Li56kBEyfk9auPP5k_dc-8" value="Somar valores das duas notas" style="whiteSpace=wrap;html=1;rounded=0;" vertex="1" parent="1">
          <mxGeometry x="-449" y="-126" width="120" height="60" as="geometry" />
        </mxCell>
        <mxCell id="Li56kBEyfk9auPP5k_dc-13" value="" style="edgeStyle=orthogonalEdgeStyle;rounded=0;orthogonalLoop=1;jettySize=auto;html=1;" edge="1" parent="1" source="Li56kBEyfk9auPP5k_dc-10" target="Li56kBEyfk9auPP5k_dc-12">
          <mxGeometry relative="1" as="geometry" />
        </mxCell>
        <mxCell id="Li56kBEyfk9auPP5k_dc-10" value="Dividir o novo valor pela quantidade de notas" style="whiteSpace=wrap;html=1;rounded=0;" vertex="1" parent="1">
          <mxGeometry x="-449" y="-21" width="120" height="60" as="geometry" />
        </mxCell>
        <mxCell id="Li56kBEyfk9auPP5k_dc-17" value="" style="edgeStyle=orthogonalEdgeStyle;rounded=0;orthogonalLoop=1;jettySize=auto;html=1;" edge="1" parent="1" source="Li56kBEyfk9auPP5k_dc-12" target="Li56kBEyfk9auPP5k_dc-16">
          <mxGeometry relative="1" as="geometry" />
        </mxCell>
        <mxCell id="Li56kBEyfk9auPP5k_dc-12" value="Exibir o resultado final&amp;nbsp;" style="rounded=0;whiteSpace=wrap;html=1;" vertex="1" parent="1">
          <mxGeometry x="-263" y="-21" width="120" height="60" as="geometry" />
        </mxCell>
        <mxCell id="Li56kBEyfk9auPP5k_dc-15" value="" style="edgeStyle=orthogonalEdgeStyle;rounded=0;orthogonalLoop=1;jettySize=auto;html=1;" edge="1" parent="1" source="Li56kBEyfk9auPP5k_dc-14" target="Li56kBEyfk9auPP5k_dc-3">
          <mxGeometry relative="1" as="geometry" />
        </mxCell>
        <mxCell id="Li56kBEyfk9auPP5k_dc-14" value="" style="ellipse;whiteSpace=wrap;html=1;aspect=fixed;fillColor=#009900;" vertex="1" parent="1">
          <mxGeometry x="-690" y="-216.5" width="33" height="33" as="geometry" />
        </mxCell>
        <mxCell id="Li56kBEyfk9auPP5k_dc-16" value="" style="ellipse;whiteSpace=wrap;html=1;rounded=0;fillColor=#850909;" vertex="1" parent="1">
          <mxGeometry x="-100" y="-6.5" width="33" height="31" as="geometry" />
        </mxCell>
        <mxCell id="Li56kBEyfk9auPP5k_dc-18" value="Exercício 1&amp;nbsp;" style="text;html=1;align=center;verticalAlign=middle;whiteSpace=wrap;rounded=0;" vertex="1" parent="1">
          <mxGeometry x="-690" y="-290" width="90" height="60" as="geometry" />
        </mxCell>
        <mxCell id="Li56kBEyfk9auPP5k_dc-19" value="Exercício 2" style="text;html=1;align=center;verticalAlign=middle;whiteSpace=wrap;rounded=0;" vertex="1" parent="1">
          <mxGeometry x="-677.5" y="90" width="65" height="30" as="geometry" />
        </mxCell>
        <mxCell id="Li56kBEyfk9auPP5k_dc-22" value="" style="edgeStyle=orthogonalEdgeStyle;rounded=0;orthogonalLoop=1;jettySize=auto;html=1;" edge="1" parent="1" source="Li56kBEyfk9auPP5k_dc-20">
          <mxGeometry relative="1" as="geometry">
            <mxPoint x="-620.5" y="236.5" as="targetPoint" />
          </mxGeometry>
        </mxCell>
        <mxCell id="Li56kBEyfk9auPP5k_dc-20" value="" style="ellipse;whiteSpace=wrap;html=1;aspect=fixed;fillColor=#009900;" vertex="1" parent="1">
          <mxGeometry x="-690" y="220" width="33" height="33" as="geometry" />
        </mxCell>
        <mxCell id="Li56kBEyfk9auPP5k_dc-29" value="" style="edgeStyle=orthogonalEdgeStyle;rounded=0;orthogonalLoop=1;jettySize=auto;html=1;" edge="1" parent="1" source="Li56kBEyfk9auPP5k_dc-24" target="Li56kBEyfk9auPP5k_dc-26">
          <mxGeometry relative="1" as="geometry" />
        </mxCell>
        <mxCell id="Li56kBEyfk9auPP5k_dc-24" value="Informar valor da primeira nota" style="rounded=0;whiteSpace=wrap;html=1;" vertex="1" parent="1">
          <mxGeometry x="-620" y="206.5" width="120" height="60" as="geometry" />
        </mxCell>
        <mxCell id="Li56kBEyfk9auPP5k_dc-33" value="" style="edgeStyle=orthogonalEdgeStyle;rounded=0;orthogonalLoop=1;jettySize=auto;html=1;" edge="1" parent="1" source="Li56kBEyfk9auPP5k_dc-26" target="Li56kBEyfk9auPP5k_dc-32">
          <mxGeometry relative="1" as="geometry" />
        </mxCell>
        <mxCell id="Li56kBEyfk9auPP5k_dc-26" value="Informar valor da segunda nota&amp;nbsp;" style="whiteSpace=wrap;html=1;rounded=0;" vertex="1" parent="1">
          <mxGeometry x="-620" y="300" width="120" height="60" as="geometry" />
        </mxCell>
        <mxCell id="Li56kBEyfk9auPP5k_dc-35" value="" style="edgeStyle=orthogonalEdgeStyle;rounded=0;orthogonalLoop=1;jettySize=auto;html=1;" edge="1" parent="1" source="Li56kBEyfk9auPP5k_dc-32" target="Li56kBEyfk9auPP5k_dc-34">
          <mxGeometry relative="1" as="geometry" />
        </mxCell>
        <mxCell id="Li56kBEyfk9auPP5k_dc-32" value="Somar o valor de ambas as notas" style="whiteSpace=wrap;html=1;rounded=0;" vertex="1" parent="1">
          <mxGeometry x="-620" y="390" width="120" height="60" as="geometry" />
        </mxCell>
        <mxCell id="Li56kBEyfk9auPP5k_dc-39" value="" style="edgeStyle=orthogonalEdgeStyle;rounded=0;orthogonalLoop=1;jettySize=auto;html=1;" edge="1" parent="1" source="Li56kBEyfk9auPP5k_dc-34" target="Li56kBEyfk9auPP5k_dc-38">
          <mxGeometry relative="1" as="geometry" />
        </mxCell>
        <mxCell id="Li56kBEyfk9auPP5k_dc-34" value="Dividir o valor pela quantidade de notas&amp;nbsp;" style="whiteSpace=wrap;html=1;rounded=0;" vertex="1" parent="1">
          <mxGeometry x="-470" y="390" width="120" height="60" as="geometry" />
        </mxCell>
        <mxCell id="Li56kBEyfk9auPP5k_dc-41" value="" style="edgeStyle=orthogonalEdgeStyle;rounded=0;orthogonalLoop=1;jettySize=auto;html=1;" edge="1" parent="1" source="Li56kBEyfk9auPP5k_dc-38" target="Li56kBEyfk9auPP5k_dc-40">
          <mxGeometry relative="1" as="geometry" />
        </mxCell>
        <mxCell id="Li56kBEyfk9auPP5k_dc-42" value="Média &amp;gt;=5" style="edgeLabel;html=1;align=center;verticalAlign=middle;resizable=0;points=[];" vertex="1" connectable="0" parent="Li56kBEyfk9auPP5k_dc-41">
          <mxGeometry x="-0.0661" y="-8" relative="1" as="geometry">
            <mxPoint as="offset" />
          </mxGeometry>
        </mxCell>
        <mxCell id="Li56kBEyfk9auPP5k_dc-44" value="" style="edgeStyle=orthogonalEdgeStyle;rounded=0;orthogonalLoop=1;jettySize=auto;html=1;" edge="1" parent="1" source="Li56kBEyfk9auPP5k_dc-38" target="Li56kBEyfk9auPP5k_dc-43">
          <mxGeometry relative="1" as="geometry" />
        </mxCell>
        <mxCell id="Li56kBEyfk9auPP5k_dc-45" value="Média &amp;lt;5" style="edgeLabel;html=1;align=center;verticalAlign=middle;resizable=0;points=[];" vertex="1" connectable="0" parent="Li56kBEyfk9auPP5k_dc-44">
          <mxGeometry x="-0.3333" y="-4" relative="1" as="geometry">
            <mxPoint as="offset" />
          </mxGeometry>
        </mxCell>
        <mxCell id="Li56kBEyfk9auPP5k_dc-38" value="se" style="rhombus;whiteSpace=wrap;html=1;rounded=0;" vertex="1" parent="1">
          <mxGeometry x="-290" y="380" width="80" height="80" as="geometry" />
        </mxCell>
        <mxCell id="Li56kBEyfk9auPP5k_dc-47" value="" style="edgeStyle=orthogonalEdgeStyle;rounded=0;orthogonalLoop=1;jettySize=auto;html=1;" edge="1" parent="1" source="Li56kBEyfk9auPP5k_dc-40" target="Li56kBEyfk9auPP5k_dc-46">
          <mxGeometry relative="1" as="geometry" />
        </mxCell>
        <mxCell id="Li56kBEyfk9auPP5k_dc-40" value="Exibir &quot;#partiuestágio&quot;" style="whiteSpace=wrap;html=1;rounded=0;" vertex="1" parent="1">
          <mxGeometry x="-310" y="206.5" width="120" height="60" as="geometry" />
        </mxCell>
        <mxCell id="Li56kBEyfk9auPP5k_dc-49" value="" style="edgeStyle=orthogonalEdgeStyle;rounded=0;orthogonalLoop=1;jettySize=auto;html=1;" edge="1" parent="1" source="Li56kBEyfk9auPP5k_dc-43" target="Li56kBEyfk9auPP5k_dc-48">
          <mxGeometry relative="1" as="geometry" />
        </mxCell>
        <mxCell id="Li56kBEyfk9auPP5k_dc-43" value="#partiutentardenovo" style="whiteSpace=wrap;html=1;rounded=0;" vertex="1" parent="1">
          <mxGeometry x="-120" y="390" width="120" height="60" as="geometry" />
        </mxCell>
        <mxCell id="Li56kBEyfk9auPP5k_dc-46" value="" style="ellipse;whiteSpace=wrap;html=1;rounded=0;fillColor=#850909;" vertex="1" parent="1">
          <mxGeometry x="-266.5" y="150" width="33" height="31" as="geometry" />
        </mxCell>
        <mxCell id="Li56kBEyfk9auPP5k_dc-48" value="" style="ellipse;whiteSpace=wrap;html=1;rounded=0;fillColor=#850909;" vertex="1" parent="1">
          <mxGeometry x="30" y="404.5" width="33" height="31" as="geometry" />
        </mxCell>
      </root>
    </mxGraphModel>
  </diagram>
</mxfile>
